<svg version="1.1" id="Layer_1" xmlns="http://www.w3.org/2000/svg" xmlns:xlink="http://www.w3.org/1999/xlink" x="0px" y="0px"
	 width="100%" viewBox="0 0 1151 433" enable-background="new 0 0 1151 433" xml:space="preserve">
<path fill="#010101" opacity="1.000000" stroke="none" 
	d="
M1152.000000,196.000000 
	C1152.000000,201.354935 1152.000000,206.709854 1151.652832,212.544830 
	C1150.842651,213.041946 1150.379761,213.059052 1149.921875,213.049896 
	C1149.927002,213.023651 1149.979858,213.031509 1149.977539,212.611572 
	C1148.095093,211.461868 1146.215698,210.095490 1144.334961,210.093506 
	C1046.148438,209.990082 947.961792,210.002213 849.775146,210.003357 
	C848.610352,210.003372 847.220093,209.626251 846.340210,210.131134 
	C845.338074,210.706192 844.791199,212.074692 844.006287,213.557434 
	C843.966064,218.291260 843.966064,222.566040 843.966064,227.122665 
	C845.763611,227.122665 847.062988,227.122665 848.362305,227.122665 
	C947.556824,227.122665 1046.751343,227.123322 1145.945801,227.115540 
	C1147.272827,227.115433 1148.599854,227.008530 1150.272217,226.965912 
	C1151.078491,226.986908 1151.539185,226.993454 1152.000000,227.000000 
	C1152.000000,259.354218 1152.000000,291.708466 1151.663818,324.820496 
	C1150.898193,324.921600 1150.219849,324.314178 1150.078491,323.600403 
	C1148.994751,318.127045 1144.434448,315.381226 1140.457275,312.946472 
	C1133.945190,308.959686 1126.189697,309.209381 1118.923584,310.305237 
	C1114.897461,310.912445 1111.161621,313.594818 1107.357300,315.468414 
	C1104.789551,316.732971 1102.330688,318.218384 1099.080566,320.015564 
	C1099.080566,315.262848 1099.080566,311.782410 1099.080566,308.232483 
	C1095.764038,307.435333 1092.699097,306.698669 1089.692993,305.976135 
	C1088.862305,311.739532 1087.813599,316.773743 1087.460083,321.856293 
	C1085.893555,344.365845 1084.617676,366.895721 1083.019287,389.402832 
	C1082.654419,394.541107 1084.225586,398.372009 1089.015015,399.992096 
	C1091.778931,400.927094 1095.367065,401.378906 1097.898804,400.354309 
	C1099.560181,399.681885 1100.831177,395.990692 1100.850464,393.639801 
	C1101.005737,374.663788 1100.911865,355.683929 1100.675781,336.707916 
	C1100.620850,332.300659 1100.754272,328.862122 1106.563477,329.026978 
	C1107.899048,329.064850 1109.800781,327.867065 1110.551270,326.676483 
	C1114.530762,320.364044 1121.438843,321.658569 1127.001099,321.051941 
	C1130.235718,320.699158 1135.598633,320.862488 1137.865112,326.086609 
	C1138.729370,328.078949 1141.606445,329.999573 1143.837891,330.386353 
	C1146.401489,330.830688 1149.266113,329.538116 1152.000000,329.000000 
	C1152.000000,363.984375 1152.000000,398.968750 1152.000000,434.000000 
	C860.645752,434.000000 569.291565,434.000000 276.986755,433.781128 
	C278.597565,429.163391 281.071381,424.709259 283.787170,420.407928 
	C284.399353,419.438293 286.618805,419.164673 286.805206,418.293762 
	C288.890106,408.555298 292.017456,398.808563 292.366272,388.975403 
	C293.245697,364.185150 292.883179,339.349426 292.910309,314.531799 
	C292.914490,310.691498 289.020538,306.361389 285.807922,306.009766 
	C280.274078,305.403992 277.147949,308.527222 277.150848,314.973511 
	C277.161133,337.627686 277.469269,360.284607 277.190369,382.934631 
	C277.089752,391.103302 275.738953,399.266296 274.746307,407.405975 
	C274.549530,409.019562 273.489838,411.782959 272.644836,411.854614 
	C267.900604,412.256775 267.817657,417.021637 265.086395,419.156677 
	C263.599396,420.319000 262.097229,421.666473 260.370728,422.283386 
	C251.627747,425.407379 251.601166,425.332977 252.000000,434.000000 
	C168.333313,434.000000 84.666634,434.000000 1.000000,434.000000 
	C1.000000,422.235016 1.000000,410.586182 1.300718,398.488892 
	C2.003205,398.038055 2.404974,398.035614 2.950121,398.364594 
	C4.636281,401.246124 7.033385,402.200195 9.732430,403.422119 
	C16.016258,406.266876 15.822496,406.694885 19.617161,401.172241 
	C21.052359,400.359100 22.783670,399.637787 22.919538,398.688202 
	C23.277643,396.185455 22.942863,393.583588 22.949032,390.587463 
	C22.966763,388.123016 22.919462,386.092285 22.940861,383.624634 
	C23.002827,381.129028 22.996098,379.070312 23.017904,376.566986 
	C21.981298,373.097565 25.566238,368.518250 20.030205,366.596069 
	C18.239666,359.467987 18.617558,358.685455 25.670755,359.143616 
	C29.388247,359.385101 33.100655,362.056885 36.668106,361.774048 
	C44.467861,361.155670 52.826263,365.596527 60.170284,359.206696 
	C61.705086,357.871277 64.861282,358.537537 67.181755,357.938385 
	C72.202530,356.642029 77.314926,355.105774 80.138710,350.331146 
	C82.461502,346.403625 83.181793,341.114349 86.262688,338.135590 
	C92.632980,331.976440 92.225998,324.198242 92.512413,316.896240 
	C92.942589,305.929077 91.479370,295.084564 83.803932,286.119263 
	C81.542000,283.477203 80.678131,279.184326 78.004395,277.436432 
	C70.865730,272.769775 62.920578,269.628357 54.082970,269.378906 
	C51.356266,266.027161 43.319981,266.089783 39.582596,269.163635 
	C31.284966,270.974396 23.396875,272.698303 15.462676,274.432251 
	C15.192677,272.863678 14.949814,271.452728 14.713066,270.077332 
	C6.468140,270.451172 5.226684,273.804810 5.002492,279.584564 
	C4.512065,292.228027 3.904495,304.870117 3.654667,317.518921 
	C3.289487,336.007904 3.236744,354.502991 2.903612,372.992828 
	C2.879348,374.339539 1.662421,375.664764 0.999999,377.000000 
	C1.000000,327.312439 1.000000,277.624878 1.345611,227.465073 
	C2.151819,226.979004 2.612417,226.965195 3.531232,227.029724 
	C105.597313,227.108063 207.205185,227.108063 308.950989,227.108063 
	C308.950989,222.045929 308.950989,217.574402 308.951965,212.679901 
	C308.162201,208.175110 304.896179,210.103058 302.876465,210.100769 
	C205.025223,209.989975 107.173843,210.002930 9.322471,210.003174 
	C7.991244,210.003174 6.480932,209.629318 5.381227,210.137543 
	C4.365389,210.607010 3.789750,212.028976 3.046687,213.027405 
	C3.073142,213.023361 3.083493,213.075867 2.736372,213.059937 
	C1.926168,213.029343 1.463084,213.014679 1.000000,213.000000 
	C1.000000,207.645065 1.000000,202.290146 1.331366,196.363083 
	C2.117442,195.851028 2.572152,195.911118 3.014629,195.984375 
	C3.002396,195.997559 3.028578,195.974579 2.998425,196.411438 
	C4.929878,197.235626 6.891297,197.960739 8.853116,197.961823 
	C106.904915,198.015884 204.956741,198.008179 303.008575,198.005112 
	C304.506470,198.005066 306.043274,198.168427 307.483246,197.872574 
	C308.065826,197.752884 308.437012,196.604218 308.970886,195.466766 
	C309.037415,190.755096 309.037415,186.500427 309.037415,182.068481 
	C307.363098,182.068481 306.381409,182.068481 305.399750,182.068481 
	C205.820267,182.068466 106.240776,182.067764 6.661294,182.076508 
	C5.501565,182.076599 4.341845,182.198318 2.808596,182.353210 
	C1.956715,182.295441 1.478358,182.147720 1.000001,182.000000 
	C1.000000,121.718246 1.000000,61.436501 1.000000,1.000000 
	C111.020844,1.000000 221.041763,1.000000 331.562927,1.467731 
	C332.063202,77.572281 332.063202,153.209106 332.063202,229.164337 
	C337.394745,229.164337 342.486969,229.164337 347.881836,229.164337 
	C347.881836,227.053574 347.881866,225.242813 347.881866,223.432053 
	C347.881866,182.443420 347.866760,141.454803 347.886566,100.466179 
	C347.902588,67.310776 347.960632,34.155392 348.000000,1.000000 
	C500.020905,1.000000 652.041809,1.000000 804.585083,1.465982 
	C805.107422,77.567284 805.107422,153.202606 805.107422,229.160339 
	C810.462585,229.160339 815.562317,229.160339 820.931030,229.160339 
	C820.931030,227.072952 820.930603,225.254395 820.931152,223.435852 
	C820.954041,149.290573 820.976990,75.145287 821.000000,1.000000 
	C931.239014,1.000000 1041.478027,1.000000 1152.000000,1.000000 
	C1152.000000,61.020599 1152.000000,121.041641 1151.666992,181.721069 
	C1150.830688,182.342377 1150.327515,182.305283 1149.375000,182.176453 
	C1047.395996,182.084702 945.866211,182.084702 844.091553,182.084702 
	C844.091553,187.008041 844.091553,191.467438 844.065430,196.363113 
	C845.979980,197.203018 847.920471,197.958649 849.861267,197.959778 
	C947.915344,198.017227 1045.969482,198.010437 1144.023560,198.008667 
	C1145.521606,198.008636 1147.057373,198.172272 1148.499268,197.881226 
	C1149.094116,197.761169 1149.486816,196.640320 1149.984619,195.986115 
	C1149.997681,195.997574 1149.973022,195.971481 1150.307617,195.877441 
	C1151.094727,195.855606 1151.547363,195.927795 1152.000000,196.000000 
M261.978851,357.093781 
	C261.406677,354.237061 263.881439,350.445312 259.162476,347.978760 
	C258.074921,343.200714 257.221283,338.354248 255.848541,333.659576 
	C253.394531,325.266968 247.983978,318.532715 241.711273,312.913361 
	C234.766083,306.691589 225.809464,304.805634 216.558380,305.267731 
	C210.518158,305.569489 204.271133,305.700714 200.457993,311.798737 
	C198.759186,314.515472 197.348953,317.910065 194.854584,319.522247 
	C190.459946,322.362579 189.968079,326.764130 189.039551,330.854462 
	C187.244995,338.759796 186.350266,346.865906 184.673508,354.802338 
	C182.656235,364.350372 184.205063,373.801971 187.995392,382.117981 
	C190.801819,388.275299 196.246750,394.603760 202.165680,397.629425 
	C209.988861,401.628540 218.514877,405.661469 228.539963,403.162354 
	C237.497818,400.929291 244.592392,396.563263 249.859512,389.444489 
	C255.129623,382.321655 257.080963,373.770508 258.929779,364.936707 
	C264.154419,364.396759 261.365784,360.471161 261.978851,357.093781 
M127.999176,383.099854 
	C127.946571,378.407623 127.893959,373.715393 127.979927,368.092163 
	C127.894539,355.969849 127.809151,343.847565 127.777519,330.969360 
	C130.791794,328.695526 133.522324,325.765594 136.890060,324.309052 
	C141.395111,322.360718 146.376968,320.644989 151.186615,320.554230 
	C154.837952,320.485352 160.497604,322.114868 161.827454,324.733612 
	C164.958618,330.899597 169.721817,329.887634 174.464233,330.576172 
	C177.098373,319.919769 168.559616,311.053497 157.226944,309.994690 
	C149.569687,309.279266 142.273621,310.719482 135.058273,312.918152 
	C134.007172,313.238434 133.164917,314.265778 132.244736,314.989746 
	C129.943542,316.800079 127.653130,318.624115 125.358398,320.442627 
	C124.926262,320.070312 124.494125,319.697968 124.061989,319.325623 
	C124.061989,315.703735 124.061989,312.081848 124.061989,308.666443 
	C121.723488,307.694336 119.797203,306.893585 117.993050,306.143616 
	C112.993202,314.465912 117.902771,324.760651 111.987869,332.675415 
	C110.978607,351.477478 109.973816,370.279755 108.957062,389.081421 
	C108.688721,394.043701 108.640617,397.934967 115.359116,399.627106 
	C122.219765,401.355011 124.582138,401.072083 126.772179,394.018280 
	C127.132980,390.687256 127.493782,387.356262 127.999176,383.099854 
M461.939178,318.911652 
	C463.563782,318.911652 465.188416,318.911652 466.957672,318.911652 
	C467.160675,316.072906 467.345947,313.482300 467.615234,309.716614 
	C461.807281,308.594482 455.905914,306.797363 449.927704,306.488922 
	C444.246582,306.195770 438.337036,306.854279 432.800964,308.209595 
	C427.329437,309.549103 421.928223,311.792297 416.982605,314.520874 
	C409.323334,318.746613 407.897980,327.469635 404.765900,334.577148 
	C401.138428,342.808777 400.346680,351.950256 400.956696,361.066833 
	C401.145447,363.887878 401.274963,366.750519 401.020538,369.556854 
	C400.095215,379.762360 406.100250,387.524628 410.172760,395.957306 
	C410.623322,396.890228 411.779938,397.807037 412.789398,398.091492 
	C418.591797,399.726624 424.371338,401.905121 430.302551,402.527466 
	C443.812317,403.944946 457.065826,402.013947 470.239960,397.474365 
	C469.730927,395.140350 469.751465,392.624420 468.615356,390.848389 
	C467.700775,389.418579 465.266693,387.917297 463.714996,388.111481 
	C455.101654,389.189514 446.594269,391.532196 437.970734,392.014984 
	C424.290771,392.780853 416.411743,386.336700 414.410767,373.852234 
	C412.330963,360.875885 413.839050,347.824524 420.967773,335.995605 
	C427.170868,325.702698 435.440796,319.028931 448.874573,318.995514 
	C452.937408,318.923218 457.000214,318.850891 461.939178,318.911652 
M487.913757,324.032043 
	C489.509521,324.032043 491.105286,324.032043 492.992340,324.032043 
	C492.992340,335.959991 493.361298,347.452972 492.891144,358.911530 
	C492.396423,370.968201 495.363373,381.927521 501.472290,392.143188 
	C502.850647,394.448212 504.328156,397.615265 506.462891,398.353699 
	C510.828064,399.863708 515.702332,400.730225 520.309204,400.530426 
	C528.377197,400.180481 536.416748,398.932709 544.428772,397.786041 
	C545.691345,397.605316 547.487000,396.153809 547.759094,394.991058 
	C548.555420,391.588104 543.659851,386.803833 540.189941,386.884094 
	C533.676208,387.034821 527.354980,389.000702 520.600342,387.389709 
	C513.660278,385.734467 512.007080,379.448669 508.328522,375.136353 
	C506.319885,372.781708 506.366058,368.274445 506.310272,364.724976 
	C506.099152,351.293457 506.225311,337.856659 506.225311,324.336914 
	C514.278992,323.544098 522.654175,322.553223 531.056885,321.937836 
	C540.007690,321.282349 540.023315,321.436432 537.986694,313.176147 
	C537.921143,312.910431 537.572632,312.714508 536.799072,311.898590 
	C529.024719,311.898590 520.701416,311.942200 512.378845,311.885864 
	C504.674316,311.833679 504.282593,311.416321 504.225250,303.412506 
	C504.174438,296.317719 504.214569,289.222321 504.214569,282.880310 
	C500.958740,281.730652 498.719055,280.939789 495.705780,279.875763 
	C494.858643,290.559479 494.020782,301.126343 493.131927,312.336243 
	C486.560028,312.336243 480.349548,312.336243 474.268524,312.336243 
	C474.562469,316.632965 474.810394,320.256805 475.053680,324.723114 
	C476.432098,326.676300 483.319183,328.030426 485.883789,326.634003 
	C486.524475,326.285187 486.659760,325.008118 487.913757,324.032043 
M875.993958,304.003143 
	C873.059692,300.666229 867.503967,301.133698 865.172974,305.000092 
	C857.691772,305.697418 852.282654,309.561768 848.773682,316.057983 
	C847.801147,317.858337 847.391052,319.980804 846.841370,321.987915 
	C844.925110,328.984375 846.008911,336.044586 849.206238,342.048370 
	C852.955688,349.088745 859.641418,353.161072 867.512573,355.714020 
	C876.766968,358.715637 885.700256,362.758698 894.618164,366.699951 
	C896.216614,367.406403 897.710144,369.652771 898.147827,371.456207 
	C899.978821,378.999451 898.693787,380.890106 891.059998,385.918213 
	C882.702881,391.422699 873.823425,389.169342 865.111450,387.959961 
	C860.029663,387.254517 855.170654,385.064972 850.109863,384.048889 
	C846.201050,383.264099 842.641541,386.166992 844.198425,388.303528 
	C846.284363,391.166168 848.787659,394.416046 851.867615,395.735748 
	C861.814697,399.998077 872.300781,401.698029 883.280273,401.264557 
	C894.632568,400.816315 902.547119,395.028198 909.512939,386.962830 
	C914.272095,381.452362 912.996155,374.854706 912.998596,368.510040 
	C913.000122,364.580078 909.587524,362.998108 907.283020,360.503235 
	C902.389343,355.205627 896.974487,351.343719 889.715698,350.197876 
	C888.585205,350.019409 887.680298,348.512787 886.633667,347.666565 
	C885.927673,347.095703 885.226929,346.365295 884.401306,346.122192 
	C881.011902,345.124207 877.179993,344.954315 874.254028,343.223419 
	C870.368225,340.924622 864.988770,341.847382 862.450806,336.074341 
	C860.187805,330.926849 859.162781,325.952850 860.300354,320.891296 
	C860.942261,318.035156 863.718445,313.726379 865.904175,313.489075 
	C874.663879,312.537964 883.647217,311.384277 892.268127,315.049164 
	C897.494995,317.271210 902.312683,321.270569 908.879395,319.452667 
	C908.879395,317.015320 908.879395,314.632416 908.879395,311.724457 
	C897.771545,309.385712 886.901917,307.097107 875.993958,304.003143 
M943.603455,281.327484 
	C942.514709,280.278564 941.426025,279.229614 940.337219,278.180664 
	C939.659363,279.269836 938.468933,280.325470 938.395081,281.454163 
	C938.119690,285.661102 938.210693,289.891998 938.131592,295.035461 
	C938.131592,300.617798 938.131592,306.200104 938.131592,312.092957 
	C930.618530,312.092957 924.014954,312.092957 917.129211,312.092957 
	C917.129211,315.536194 917.129211,318.642487 916.923767,322.623657 
	C916.813782,325.166351 917.108276,327.265961 920.538208,327.025146 
	C923.165161,326.840698 925.850830,327.205109 928.432678,326.813263 
	C929.409424,326.665009 930.168274,325.080536 931.937683,324.029449 
	C933.366272,324.104950 934.794861,324.180420 936.263184,324.257996 
	C936.317078,325.322998 936.359070,325.976013 936.381836,326.629700 
	C936.937683,342.560150 937.371704,358.496429 938.134827,374.416931 
	C938.312073,378.114258 939.242126,381.889771 940.497681,385.388184 
	C941.696533,388.728668 943.084900,392.534882 945.606628,394.753662 
	C950.567139,399.118286 956.708130,401.517853 963.616089,400.754944 
	C971.987244,399.830444 980.370544,398.973450 988.697449,397.741913 
	C989.822388,397.575562 991.428894,395.426453 991.470520,394.151550 
	C991.598206,390.250763 987.244385,386.655487 983.290894,386.943115 
	C981.134827,387.099976 978.982910,387.611511 976.838074,387.563324 
	C972.313660,387.461670 967.606995,387.791016 963.330994,386.631165 
	C959.586792,385.615570 955.317322,383.984619 954.293945,379.116638 
	C953.570679,375.675873 952.473877,372.267639 952.180725,368.791199 
	C951.356323,359.015167 950.756287,349.216431 950.279602,339.416382 
	C950.033203,334.351410 950.236206,329.264587 950.236206,324.289673 
	C959.963074,323.412750 969.170410,322.510956 978.392273,321.795715 
	C981.103027,321.585480 982.409241,320.607361 982.050720,317.788086 
	C981.847839,316.192871 981.775024,314.581085 981.568787,312.062073 
	C970.984436,312.062073 960.593567,312.062073 949.731506,312.062073 
	C949.731506,303.302765 949.559326,295.478760 949.799561,287.667450 
	C949.932373,283.348938 948.451172,281.352142 943.603455,281.327484 
M829.016174,382.243378 
	C828.803345,381.644989 828.386597,380.529266 828.406677,380.521393 
	C832.202209,379.024872 831.135010,375.674316 830.976013,373.025513 
	C830.221252,360.443359 833.957581,347.594757 828.161560,335.258728 
	C826.249268,331.188599 826.235657,326.265411 824.995056,321.832764 
	C822.179443,311.773010 815.630249,305.923584 804.816345,304.150665 
	C802.380188,301.408142 792.539673,300.906128 790.287476,303.454071 
	C789.998413,303.781036 790.040710,304.400970 789.057312,304.964783 
	C783.872192,306.061859 778.586487,306.825958 773.531677,308.354126 
	C768.917969,309.748962 767.633667,313.633667 769.522095,318.235016 
	C769.960876,319.303894 770.318115,320.406250 770.870605,321.927521 
	C775.477661,319.863617 780.350403,318.425598 784.356262,315.709167 
	C790.169067,311.767456 795.658508,312.042999 801.484619,314.926788 
	C809.178162,318.734894 811.857483,325.280121 811.394592,333.913513 
	C810.136963,333.913513 808.835510,333.776886 807.572021,333.937958 
	C802.900391,334.533417 798.163757,334.913757 793.615967,336.039246 
	C791.813965,336.485260 790.642578,339.486572 788.841614,339.928497 
	C776.906921,342.856689 770.020508,351.209473 764.724426,361.449249 
	C764.088379,362.679047 763.503174,363.943359 762.765869,365.110443 
	C761.873108,366.523529 760.286987,367.730896 759.964722,369.233948 
	C758.035400,378.233032 759.873535,386.262238 766.788025,392.762939 
	C768.627991,394.492798 770.137329,396.987610 772.309021,397.859283 
	C776.042603,399.357849 780.180786,400.634705 784.143127,400.617462 
	C793.079102,400.578583 802.207825,400.384033 809.059631,393.033173 
	C809.860046,392.174530 811.179260,391.799500 812.593872,391.013672 
	C812.789917,393.485199 812.955933,395.577728 813.112000,397.544403 
	C814.723206,398.221466 816.321716,398.584045 817.551575,399.462616 
	C823.365234,403.615723 826.792908,402.243988 828.728088,394.733459 
	C831.805908,391.227356 831.974548,386.173523 829.016174,382.243378 
M379.013306,29.972664 
	C379.013306,42.577049 379.013306,55.181435 379.013306,68.033714 
	C381.346252,68.033714 383.153137,68.033707 384.960022,68.033707 
	C423.626007,68.033707 462.291992,68.041451 500.957977,68.022949 
	C505.281860,68.020882 509.605652,67.869972 514.771667,67.773590 
	C515.113831,65.155396 515.725281,62.539886 515.751404,59.918549 
	C515.861816,48.826569 515.798157,37.732857 515.798157,26.287025 
	C513.316284,26.158615 511.525726,25.985739 509.735107,25.985092 
	C467.785522,25.969940 425.835907,25.973358 383.886322,25.973700 
	C382.887543,25.973707 381.602966,25.594284 380.960022,26.073643 
	C380.095886,26.717918 379.727020,28.026524 379.013306,29.972664 
M667.943176,358.847351 
	C668.091980,365.944611 668.969849,366.829010 676.141968,366.981720 
	C677.441833,367.009430 678.744812,366.894135 680.955872,366.954407 
	C684.429688,366.954407 687.903503,366.954407 690.813660,366.954407 
	C700.686584,343.958527 703.461670,318.991608 717.485901,297.464417 
	C725.688232,331.630280 733.890564,365.796112 742.021545,399.664703 
	C746.708801,399.336975 751.136353,399.027405 755.775269,398.703064 
	C754.506836,392.856323 753.007751,387.384064 752.197266,381.811676 
	C751.362976,376.075714 751.041992,370.337738 747.286011,365.455231 
	C746.389038,364.289276 746.305237,362.423279 746.056519,360.846283 
	C745.040955,354.407410 744.192139,347.941589 743.123962,341.511871 
	C740.984924,328.635620 739.478821,315.724365 734.248779,303.415619 
	C731.146362,296.114044 730.765747,287.685211 728.789490,279.857086 
	C728.239319,277.677948 726.686951,274.480133 725.036011,274.085510 
	C719.779907,272.829254 714.213745,272.940643 708.859863,271.998108 
	C705.289124,271.369507 704.018188,273.784332 703.319702,275.918396 
	C700.028870,285.972961 696.926758,296.100006 694.137695,306.305145 
	C691.161072,317.196289 688.743896,328.240570 685.748047,339.125977 
	C685.225830,341.023163 683.048584,342.464813 681.635742,344.116852 
	C680.419922,342.045227 679.026428,340.053436 678.047180,337.875427 
	C677.328064,336.276001 677.348877,334.354645 676.699768,332.711060 
	C673.555969,324.750610 672.990662,316.220703 668.647827,308.258392 
	C663.857361,299.475464 662.832397,288.660187 659.951233,278.793213 
	C659.473267,277.156433 658.076538,274.780334 656.788696,274.555695 
	C649.855103,273.346252 642.821777,272.708191 635.130371,271.790283 
	C634.317810,278.302979 633.965393,284.038513 632.804443,289.605438 
	C631.666321,295.063171 629.470093,300.292908 628.168823,305.725891 
	C626.719543,311.776764 626.384888,318.152527 624.441040,324.014099 
	C621.145081,333.952637 620.577820,344.452179 616.350342,354.330017 
	C612.435181,363.478119 611.450500,373.905640 609.403442,383.816833 
	C608.452087,388.423309 608.041077,393.141388 607.307495,398.360870 
	C612.055725,398.360870 616.429199,398.360870 620.498535,398.360870 
	C622.914307,389.705017 625.013184,381.261597 627.661255,372.994080 
	C629.711975,366.591248 632.794739,360.516754 634.807129,354.104340 
	C638.555054,342.162201 639.029358,329.410522 644.704651,317.824066 
	C647.224731,312.679108 646.970703,306.175354 648.232788,298.783997 
	C649.154663,300.895325 649.682068,301.880798 650.025574,302.926666 
	C651.907837,308.657074 653.607727,314.451355 655.637146,320.128326 
	C657.566223,325.524597 660.103821,330.712708 661.867310,336.156464 
	C664.196167,343.345306 666.031372,350.694122 667.943176,358.847351 
M464.535339,94.177391 
	C461.102875,94.177391 457.670441,94.177391 454.270355,94.177391 
	C454.270355,108.148933 454.270355,121.418259 454.270355,134.640457 
	C525.530151,134.640457 596.560059,134.640457 667.562683,134.640457 
	C667.562683,121.098091 667.562683,107.997040 667.562683,94.177391 
	C600.073975,94.177391 532.800354,94.177391 464.535339,94.177391 
M723.500122,161.238632 
	C704.188965,161.238632 684.877869,161.238602 665.566711,161.238632 
	C647.587341,161.238663 629.608032,161.237015 611.628662,161.241089 
	C609.474731,161.241577 607.122864,160.848160 607.133118,164.244370 
	C607.171753,177.017502 607.148621,189.790833 607.148621,202.846954 
	C662.907288,202.846954 718.246094,202.846954 773.664734,202.846954 
	C773.664734,189.029785 773.664734,175.316132 773.664734,161.238647 
	C757.050842,161.238647 740.775452,161.238647 723.500122,161.238632 
M311.065308,332.118073 
	C310.759735,334.882721 310.265259,337.641968 310.185425,340.413116 
	C309.978394,347.599823 309.115326,354.908203 310.092651,361.948914 
	C311.066986,368.967834 313.472931,375.916992 316.145203,382.535828 
	C318.949463,389.481628 322.778320,397.254395 331.006317,397.788025 
	C342.800659,398.552979 354.801575,397.815155 366.581909,396.517273 
	C374.348267,395.661591 381.892578,392.732391 389.508881,390.632050 
	C390.753235,390.288879 392.803711,389.478607 392.839172,388.798584 
	C392.932922,387.000214 392.626404,384.713837 391.524414,383.462494 
	C390.577942,382.387665 388.262939,381.993134 386.642639,382.161224 
	C384.286041,382.405670 382.049103,383.802490 379.692413,384.048004 
	C370.775421,384.976807 361.840393,386.047852 352.892944,386.261169 
	C346.713196,386.408478 340.497498,385.273560 334.309692,384.602356 
	C333.428040,384.506683 332.333618,384.008759 331.810455,383.331726 
	C325.453644,375.104553 319.123657,366.830658 322.053375,355.622192 
	C332.799744,353.963623 343.654968,352.411469 354.452789,350.529816 
	C356.962952,350.092377 361.029053,351.418945 361.191010,346.537445 
	C361.198029,346.326599 362.647583,346.192200 363.411224,345.973572 
	C370.979828,343.806915 379.716431,342.983032 381.974396,333.452545 
	C382.873138,329.659149 383.113403,325.019989 381.744568,321.510406 
	C377.871948,311.581543 368.858826,307.659393 359.226746,306.236908 
	C350.009369,304.875641 340.623596,306.059662 332.033173,310.045074 
	C327.370911,312.208038 321.892944,313.200928 319.304169,318.991302 
	C317.329681,323.407623 313.991730,327.214355 311.065308,332.118073 
M1016.754700,354.126953 
	C1019.611206,353.428345 1022.496643,352.829498 1025.318604,352.011658 
	C1032.630371,349.892731 1040.624634,351.550598 1047.520264,346.208435 
	C1052.700439,342.195312 1061.074585,343.096069 1063.211060,334.049164 
	C1064.502075,328.583252 1063.087646,315.946136 1058.541992,312.877960 
	C1043.104492,302.457886 1027.114502,304.948792 1011.041687,311.050354 
	C1007.236816,312.494720 1004.199524,314.659729 1002.592773,318.908295 
	C1001.898499,320.744080 997.867798,321.387573 997.297363,323.188568 
	C994.898621,330.762146 991.849792,338.522919 991.594299,346.299103 
	C991.086243,361.761292 992.644958,377.199280 1003.355774,389.826538 
	C1005.801086,392.709473 1008.533691,397.363586 1011.370850,397.547394 
	C1023.068848,398.305115 1034.936768,398.436798 1046.587158,397.261475 
	C1054.930908,396.419739 1062.999146,393.016357 1071.251953,391.009125 
	C1073.919312,390.360413 1075.118408,389.088745 1074.099487,386.665314 
	C1073.318237,384.806824 1071.769043,383.271179 1070.986206,382.182709 
	C1068.757446,382.977753 1067.435181,383.768707 1066.053345,383.891968 
	C1054.647949,384.909851 1043.242554,386.274872 1031.814087,386.538330 
	C1026.037354,386.671478 1020.171570,384.925873 1014.439697,383.619110 
	C1013.028748,383.297424 1011.799011,381.506683 1010.801575,380.157898 
	C1005.336243,372.767822 1004.715149,364.210999 1004.844299,355.109100 
	C1008.636536,354.785278 1012.244507,354.477203 1016.754700,354.126953 
M274.966553,291.320923 
	C277.440857,299.056641 288.911896,300.674835 291.925781,293.971405 
	C293.913269,289.550751 292.663391,285.773041 291.075439,281.591003 
	C289.273621,276.845703 285.665192,274.311310 279.224060,274.987366 
	C274.413025,275.492310 273.270233,279.150879 273.370239,283.133362 
	C273.432129,285.597443 274.391449,288.039001 274.966553,291.320923 
z"/>
<path fill="#F8F8F8" opacity="1.000000" stroke="none" 
	d="
M0.999999,377.437500 
	C1.662421,375.664764 2.879348,374.339539 2.903612,372.992828 
	C3.236744,354.502991 3.289487,336.007904 3.654667,317.518921 
	C3.904495,304.870117 4.512065,292.228027 5.002492,279.584564 
	C5.226684,273.804810 6.468140,270.451172 14.713066,270.077332 
	C14.949814,271.452728 15.192677,272.863678 15.462676,274.432251 
	C23.396875,272.698303 31.284966,270.974396 39.797050,269.538696 
	C44.975788,269.814911 49.530533,269.802887 54.085274,269.790833 
	C62.920578,269.628357 70.865730,272.769775 78.004395,277.436432 
	C80.678131,279.184326 81.542000,283.477203 83.803932,286.119263 
	C91.479370,295.084564 92.942589,305.929077 92.512413,316.896240 
	C92.225998,324.198242 92.632980,331.976440 86.262688,338.135590 
	C83.181793,341.114349 82.461502,346.403625 80.138710,350.331146 
	C77.314926,355.105774 72.202530,356.642029 67.181755,357.938385 
	C64.861282,358.537537 61.705086,357.871277 60.170284,359.206696 
	C52.826263,365.596527 44.467861,361.155670 36.668106,361.774048 
	C33.100655,362.056885 29.388247,359.385101 25.670755,359.143616 
	C18.617558,358.685455 18.239666,359.467987 19.643425,366.775940 
	C19.228025,370.553436 19.233068,373.747711 19.144260,377.372437 
	C19.098766,379.850067 19.147127,381.897247 19.114429,384.379303 
	C19.100758,386.864105 19.168140,388.914001 19.162125,391.419434 
	C19.121174,394.969940 19.153625,398.064972 19.186077,401.159973 
	C15.822496,406.694885 16.016258,406.266876 9.732430,403.422119 
	C7.033385,402.200195 4.636281,401.246124 3.008126,397.900940 
	C2.940669,393.539429 3.081380,389.966278 2.885805,386.411652 
	C2.839812,385.575714 1.658829,384.802216 0.999998,384.000000 
	C1.000000,381.958344 1.000000,379.916656 0.999999,377.437500 
M54.884281,346.045288 
	C57.745796,345.179138 60.855663,344.755737 63.401852,343.327484 
	C66.176376,341.771118 69.797997,340.740967 70.098053,336.348541 
	C70.202698,334.816589 71.869110,333.408478 72.764549,331.909393 
	C74.149185,329.591217 76.504227,327.308868 76.659065,324.896545 
	C77.246445,315.745667 78.212830,306.785248 72.502701,298.052368 
	C68.295403,291.617859 64.314507,285.945099 57.277729,282.442078 
	C48.412281,278.028717 48.538815,277.758209 42.443161,277.777222 
	C40.448334,277.783447 38.426445,277.717743 36.467087,278.015228 
	C34.594444,278.299561 32.595249,278.681427 30.991119,279.608063 
	C27.717508,281.499023 24.926458,284.704651 21.464544,285.662384 
	C17.620646,286.725861 16.900906,288.580566 17.022049,291.863098 
	C17.640133,308.611084 18.209091,325.360870 18.825480,342.108917 
	C18.841778,342.551788 19.203129,342.981934 19.690435,344.042114 
	C27.599112,345.370544 35.794552,346.747131 44.295029,348.857666 
	C49.808105,351.543488 53.169765,350.592987 54.884281,346.045288 
z"/>
<path fill="#F3F3F3" opacity="1.000000" stroke="none" 
	d="
M347.533142,1.000000 
	C347.960632,34.155392 347.902588,67.310776 347.886566,100.466179 
	C347.866760,141.454803 347.881866,182.443420 347.881866,223.432053 
	C347.881866,225.242813 347.881836,227.053574 347.881836,229.164337 
	C342.486969,229.164337 337.394745,229.164337 332.063202,229.164337 
	C332.063202,153.209106 332.063202,77.572281 332.031616,1.467731 
	C337.022095,1.000000 342.044189,1.000000 347.533142,1.000000 
z"/>
<path fill="#F3F3F3" opacity="1.000000" stroke="none" 
	d="
M820.533142,1.000000 
	C820.976990,75.145287 820.954041,149.290573 820.931152,223.435852 
	C820.930603,225.254395 820.931030,227.072952 820.931030,229.160339 
	C815.562317,229.160339 810.462585,229.160339 805.107422,229.160339 
	C805.107422,153.202606 805.107422,77.567284 805.053711,1.465982 
	C810.022095,1.000000 815.044189,1.000000 820.533142,1.000000 
z"/>
<path fill="#F4F4F4" opacity="1.000000" stroke="none" 
	d="
M252.468643,434.000000 
	C251.601166,425.332977 251.627747,425.407379 260.370728,422.283386 
	C262.097229,421.666473 263.599396,420.319000 265.086395,419.156677 
	C267.817657,417.021637 267.900604,412.256775 272.644836,411.854614 
	C273.489838,411.782959 274.549530,409.019562 274.746307,407.405975 
	C275.738953,399.266296 277.089752,391.103302 277.190369,382.934631 
	C277.469269,360.284607 277.161133,337.627686 277.150848,314.973511 
	C277.147949,308.527222 280.274078,305.403992 285.807922,306.009766 
	C289.020538,306.361389 292.914490,310.691498 292.910309,314.531799 
	C292.883179,339.349426 293.245697,364.185150 292.366272,388.975403 
	C292.017456,398.808563 288.890106,408.555298 286.805206,418.293762 
	C286.618805,419.164673 284.399353,419.438293 283.787170,420.407928 
	C281.071381,424.709259 278.597565,429.163391 276.518127,433.781128 
	C268.979095,434.000000 260.958191,434.000000 252.468643,434.000000 
z"/>
<path fill="#F4F4F4" opacity="1.000000" stroke="none" 
	d="
M1152.000000,328.600006 
	C1149.266113,329.538116 1146.401489,330.830688 1143.837891,330.386353 
	C1141.606445,329.999573 1138.729370,328.078949 1137.865112,326.086609 
	C1135.598633,320.862488 1130.235718,320.699158 1127.001099,321.051941 
	C1121.438843,321.658569 1114.530762,320.364044 1110.551270,326.676483 
	C1109.800781,327.867065 1107.899048,329.064850 1106.563477,329.026978 
	C1100.754272,328.862122 1100.620850,332.300659 1100.675781,336.707916 
	C1100.911865,355.683929 1101.005737,374.663788 1100.850464,393.639801 
	C1100.831177,395.990692 1099.560181,399.681885 1097.898804,400.354309 
	C1095.367065,401.378906 1091.778931,400.927094 1089.015015,399.992096 
	C1084.225586,398.372009 1082.654419,394.541107 1083.019287,389.402832 
	C1084.617676,366.895721 1085.893555,344.365845 1087.460083,321.856293 
	C1087.813599,316.773743 1088.862305,311.739532 1089.692993,305.976135 
	C1092.699097,306.698669 1095.764038,307.435333 1099.080566,308.232483 
	C1099.080566,311.782410 1099.080566,315.262848 1099.080566,320.015564 
	C1102.330688,318.218384 1104.789551,316.732971 1107.357300,315.468414 
	C1111.161621,313.594818 1114.897461,310.912445 1118.923584,310.305237 
	C1126.189697,309.209381 1133.945190,308.959686 1140.457275,312.946472 
	C1144.434448,315.381226 1148.994751,318.127045 1150.078491,323.600403 
	C1150.219849,324.314178 1150.898193,324.921600 1151.663818,325.289154 
	C1152.000000,326.066681 1152.000000,327.133331 1152.000000,328.600006 
z"/>
<path fill="#4C4C4C" opacity="1.000000" stroke="none" 
	d="
M1.000000,213.464645 
	C1.463084,213.014679 1.926168,213.029343 2.714377,213.518890 
	C3.050674,218.312973 3.061844,222.632172 3.073014,226.951370 
	C2.612417,226.965195 2.151819,226.979004 1.345611,226.996414 
	C1.000000,222.643097 1.000000,218.286194 1.000000,213.464645 
z"/>
<path fill="#4C4C4C" opacity="1.000000" stroke="none" 
	d="
M1152.000000,226.535355 
	C1151.539185,226.993454 1151.078491,226.986908 1150.289795,226.505203 
	C1149.946777,221.712082 1149.931763,217.394104 1149.916870,213.076141 
	C1150.379761,213.059052 1150.842651,213.041946 1151.652832,213.012421 
	C1152.000000,217.356903 1152.000000,221.713806 1152.000000,226.535355 
z"/>
<path fill="#222222" opacity="1.000000" stroke="none" 
	d="
M0.999998,384.464661 
	C1.658829,384.802216 2.839812,385.575714 2.885805,386.411652 
	C3.081380,389.966278 2.940669,393.539429 2.864748,397.569458 
	C2.404974,398.035614 2.003205,398.038055 1.300718,398.020264 
	C1.000000,393.643097 1.000000,389.286194 0.999998,384.464661 
z"/>
<path fill="#848484" opacity="1.000000" stroke="none" 
	d="
M1152.000000,195.535355 
	C1151.547363,195.927795 1151.094727,195.855606 1150.249023,195.419678 
	C1149.845337,190.793350 1149.834839,186.530777 1149.824219,182.268188 
	C1150.327515,182.305283 1150.830688,182.342377 1151.666992,182.189728 
	C1152.000000,186.356903 1152.000000,190.713806 1152.000000,195.535355 
z"/>
<path fill="#848484" opacity="1.000000" stroke="none" 
	d="
M1.000001,182.464645 
	C1.478358,182.147720 1.956715,182.295441 2.856432,182.799072 
	C3.194149,187.427048 3.110505,191.699127 3.026861,195.971191 
	C2.572152,195.911118 2.117442,195.851028 1.331366,195.895477 
	C1.000000,191.643097 1.000000,187.286194 1.000001,182.464645 
z"/>
<path fill="#FCFCFC" opacity="1.000000" stroke="none" 
	d="
M465.031036,94.177391 
	C532.800354,94.177391 600.073975,94.177391 667.562683,94.177391 
	C667.562683,107.997040 667.562683,121.098091 667.562683,134.640457 
	C596.560059,134.640457 525.530151,134.640457 454.270355,134.640457 
	C454.270355,121.418259 454.270355,108.148933 454.270355,94.177391 
	C457.670441,94.177391 461.102875,94.177391 465.031036,94.177391 
z"/>
<path fill="#FAFAFA" opacity="1.000000" stroke="none" 
	d="
M724.000122,161.238647 
	C740.775452,161.238647 757.050842,161.238647 773.664734,161.238647 
	C773.664734,175.316132 773.664734,189.029785 773.664734,202.846954 
	C718.246094,202.846954 662.907288,202.846954 607.148621,202.846954 
	C607.148621,189.790833 607.171753,177.017502 607.133118,164.244370 
	C607.122864,160.848160 609.474731,161.241577 611.628662,161.241089 
	C629.608032,161.237015 647.587341,161.238663 665.566711,161.238632 
	C684.877869,161.238602 704.188965,161.238632 724.000122,161.238647 
z"/>
<path fill="#F8F8F8" opacity="1.000000" stroke="none" 
	d="
M668.078796,357.974152 
	C666.031372,350.694122 664.196167,343.345306 661.867310,336.156464 
	C660.103821,330.712708 657.566223,325.524597 655.637146,320.128326 
	C653.607727,314.451355 651.907837,308.657074 650.025574,302.926666 
	C649.682068,301.880798 649.154663,300.895325 648.232788,298.783997 
	C646.970703,306.175354 647.224731,312.679108 644.704651,317.824066 
	C639.029358,329.410522 638.555054,342.162201 634.807129,354.104340 
	C632.794739,360.516754 629.711975,366.591248 627.661255,372.994080 
	C625.013184,381.261597 622.914307,389.705017 620.498535,398.360870 
	C616.429199,398.360870 612.055725,398.360870 607.307495,398.360870 
	C608.041077,393.141388 608.452087,388.423309 609.403442,383.816833 
	C611.450500,373.905640 612.435181,363.478119 616.350342,354.330017 
	C620.577820,344.452179 621.145081,333.952637 624.441040,324.014099 
	C626.384888,318.152527 626.719543,311.776764 628.168823,305.725891 
	C629.470093,300.292908 631.666321,295.063171 632.804443,289.605438 
	C633.965393,284.038513 634.317810,278.302979 635.130371,271.790283 
	C642.821777,272.708191 649.855103,273.346252 656.788696,274.555695 
	C658.076538,274.780334 659.473267,277.156433 659.951233,278.793213 
	C662.832397,288.660187 663.857361,299.475464 668.647827,308.258392 
	C672.990662,316.220703 673.555969,324.750610 676.699768,332.711060 
	C677.348877,334.354645 677.328064,336.276001 678.047180,337.875427 
	C679.026428,340.053436 680.419922,342.045227 681.635742,344.116882 
	C683.048584,342.464813 685.225830,341.023163 685.748047,339.125977 
	C688.743896,328.240570 691.161072,317.196289 694.137695,306.305145 
	C696.926758,296.100006 700.028870,285.972961 703.319702,275.918396 
	C704.018188,273.784332 705.289124,271.369507 708.859863,271.998108 
	C714.213745,272.940643 719.779907,272.829254 725.036011,274.085510 
	C726.686951,274.480133 728.239319,277.677948 728.789490,279.857086 
	C730.765747,287.685211 731.146362,296.114044 734.248779,303.415619 
	C739.478821,315.724365 740.984924,328.635620 743.123962,341.511871 
	C744.192139,347.941589 745.040955,354.407410 746.056519,360.846283 
	C746.305237,362.423279 746.389038,364.289276 747.286011,365.455231 
	C751.041992,370.337738 751.362976,376.075714 752.197266,381.811676 
	C753.007751,387.384064 754.506836,392.856323 755.775269,398.703064 
	C751.136353,399.027405 746.708801,399.336975 742.021545,399.664703 
	C733.890564,365.796112 725.688232,331.630280 717.485901,297.464417 
	C703.461670,318.991608 700.686584,343.958527 690.813660,366.954407 
	C687.903503,366.954407 684.429688,366.954407 680.382629,366.532959 
	C677.401672,365.512115 674.993896,364.912689 672.506958,364.293518 
	C671.280334,362.060638 673.256165,357.474548 668.078796,357.974152 
z"/>
<path fill="#FFFFFF" opacity="1.000000" stroke="none" 
	d="
M513.929443,67.788094 
	C509.605652,67.869972 505.281860,68.020882 500.957977,68.022949 
	C462.291992,68.041451 423.626007,68.033707 384.960022,68.033707 
	C383.153137,68.033707 381.346252,68.033714 379.013306,68.033714 
	C379.013306,55.181435 379.013306,42.577049 379.537811,29.478558 
	C424.457153,28.984449 468.852020,28.984449 512.990112,28.984449 
	C513.405029,29.779186 513.682129,30.063398 513.684387,30.349741 
	C513.781311,42.829075 513.853943,55.308594 513.929443,67.788094 
z"/>
<path fill="#FFFFFF" opacity="1.000000" stroke="none" 
	d="
M1149.921875,213.049896 
	C1149.931763,217.394104 1149.946777,221.712082 1149.944336,226.490753 
	C1148.599854,227.008530 1147.272827,227.115433 1145.945801,227.115540 
	C1046.751343,227.123322 947.556824,227.122665 848.362305,227.122665 
	C847.062988,227.122665 845.763611,227.122665 843.966064,227.122665 
	C843.966064,222.566040 843.966064,218.291260 844.470093,213.512634 
	C946.642700,213.016357 1048.311279,213.023941 1149.979858,213.031509 
	C1149.979858,213.031509 1149.927002,213.023651 1149.921875,213.049896 
z"/>
<path fill="#FFFFFF" opacity="1.000000" stroke="none" 
	d="
M3.531232,227.029724 
	C3.061844,222.632172 3.050674,218.312973 3.061499,213.534821 
	C3.083493,213.075867 3.073142,213.023361 3.513847,213.013062 
	C85.820557,213.001846 167.686569,212.994385 249.552567,213.004730 
	C269.352051,213.007217 289.151520,213.068588 308.950989,213.102875 
	C308.950989,217.574402 308.950989,222.045929 308.950989,227.108063 
	C207.205185,227.108063 105.597313,227.108063 3.531232,227.029724 
z"/>
<path fill="#F9F9F9" opacity="1.000000" stroke="none" 
	d="
M3.014629,195.984375 
	C3.110505,191.699127 3.194149,187.427048 3.229956,182.709122 
	C4.341845,182.198318 5.501565,182.076599 6.661294,182.076508 
	C106.240776,182.067764 205.820267,182.068466 305.399750,182.068481 
	C306.381409,182.068481 307.363098,182.068481 309.037415,182.068481 
	C309.037415,186.500427 309.037415,190.755096 308.510040,195.508698 
	C206.331299,195.996613 104.679939,195.985596 3.028578,195.974579 
	C3.028578,195.974579 3.002396,195.997559 3.014629,195.984375 
z"/>
<path fill="#F9F9F9" opacity="1.000000" stroke="none" 
	d="
M1149.375000,182.176453 
	C1149.834839,186.530777 1149.845337,190.793350 1149.914429,195.513702 
	C1149.973022,195.971481 1149.997681,195.997574 1149.518311,196.009491 
	C1054.720459,196.025253 960.402100,196.031494 866.083740,196.028366 
	C858.752991,196.028122 851.422302,195.962219 844.091553,195.926834 
	C844.091553,191.467438 844.091553,187.008041 844.091553,182.084702 
	C945.866211,182.084702 1047.395996,182.084702 1149.375000,182.176453 
z"/>
<path fill="#F8F8F8" opacity="1.000000" stroke="none" 
	d="
M805.056824,304.910461 
	C815.630249,305.923584 822.179443,311.773010 824.995056,321.832764 
	C826.235657,326.265411 826.249268,331.188599 828.161560,335.258728 
	C833.957581,347.594757 830.221252,360.443359 830.976013,373.025513 
	C831.135010,375.674316 832.202209,379.024872 828.406677,380.521393 
	C828.386597,380.529266 828.803345,381.644989 828.751831,382.826416 
	C828.350342,387.310669 828.213196,391.211823 828.076050,395.113007 
	C826.792908,402.243988 823.365234,403.615723 817.551575,399.462616 
	C816.321716,398.584045 814.723206,398.221466 813.112000,397.544403 
	C812.955933,395.577728 812.789917,393.485199 812.593872,391.013672 
	C811.179260,391.799500 809.860046,392.174530 809.059631,393.033173 
	C802.207825,400.384033 793.079102,400.578583 784.143127,400.617462 
	C780.180786,400.634705 776.042603,399.357849 772.309021,397.859283 
	C770.137329,396.987610 768.627991,394.492798 766.788025,392.762939 
	C759.873535,386.262238 758.035400,378.233032 759.964722,369.233948 
	C760.286987,367.730896 761.873108,366.523529 762.765869,365.110443 
	C763.503174,363.943359 764.088379,362.679047 764.724426,361.449249 
	C770.020508,351.209473 776.906921,342.856689 788.841614,339.928497 
	C790.642578,339.486572 791.813965,336.485260 793.615967,336.039246 
	C798.163757,334.913757 802.900391,334.533417 807.572021,333.937958 
	C808.835510,333.776886 810.136963,333.913513 811.394592,333.913513 
	C811.857483,325.280121 809.178162,318.734894 801.484619,314.926788 
	C795.658508,312.042999 790.169067,311.767456 784.356262,315.709167 
	C780.350403,318.425598 775.477661,319.863617 770.870605,321.927521 
	C770.318115,320.406250 769.960876,319.303894 769.522095,318.235016 
	C767.633667,313.633667 768.917969,309.748962 773.531677,308.354126 
	C778.586487,306.825958 783.872192,306.061859 789.957642,305.012085 
	C795.590942,305.009735 800.323914,304.960083 805.056824,304.910461 
M813.022522,354.080414 
	C813.022522,350.797913 813.022522,347.515411 813.022522,343.262360 
	C807.171448,344.308655 801.977783,345.214142 796.799011,346.198120 
	C796.261719,346.300232 795.789001,346.839996 795.327759,347.226105 
	C793.796997,348.507416 792.338623,349.882050 790.748474,351.083252 
	C789.560547,351.980652 788.216248,352.672516 786.934021,353.443298 
	C782.743530,355.962372 780.955200,360.743744 777.732361,363.785370 
	C772.535095,368.690521 774.140930,374.087555 774.076416,379.517578 
	C774.061462,380.780884 774.858215,382.688110 775.857422,383.222656 
	C780.990784,385.969238 785.656311,390.780518 792.456787,387.312042 
	C794.817261,386.108124 797.496094,385.296051 800.120422,384.884583 
	C808.595398,383.555786 812.957031,378.808472 812.997925,370.478241 
	C813.006836,368.653717 813.117126,366.829681 813.997253,364.997589 
	C819.385864,364.484192 816.381836,360.334900 816.779968,357.862915 
	C816.899841,357.119141 814.453796,355.962097 813.022522,354.080414 
z"/>
<path fill="#F6F6F6" opacity="1.000000" stroke="none" 
	d="
M311.162842,331.705170 
	C313.991730,327.214355 317.329681,323.407623 319.304169,318.991302 
	C321.892944,313.200928 327.370911,312.208038 332.033173,310.045074 
	C340.623596,306.059662 350.009369,304.875641 359.226746,306.236908 
	C368.858826,307.659393 377.871948,311.581543 381.744568,321.510406 
	C383.113403,325.019989 382.873138,329.659149 381.974396,333.452545 
	C379.716431,342.983032 370.979828,343.806915 363.411224,345.973572 
	C362.647583,346.192200 361.198029,346.326599 361.191010,346.537445 
	C361.029053,351.418945 356.962952,350.092377 354.452789,350.529816 
	C343.654968,352.411469 332.799744,353.963623 322.053375,355.622192 
	C319.123657,366.830658 325.453644,375.104553 331.810455,383.331726 
	C332.333618,384.008759 333.428040,384.506683 334.309692,384.602356 
	C340.497498,385.273560 346.713196,386.408478 352.892944,386.261169 
	C361.840393,386.047852 370.775421,384.976807 379.692413,384.048004 
	C382.049103,383.802490 384.286041,382.405670 386.642639,382.161224 
	C388.262939,381.993134 390.577942,382.387665 391.524414,383.462494 
	C392.626404,384.713837 392.932922,387.000214 392.839172,388.798584 
	C392.803711,389.478607 390.753235,390.288879 389.508881,390.632050 
	C381.892578,392.732391 374.348267,395.661591 366.581909,396.517273 
	C354.801575,397.815155 342.800659,398.552979 331.006317,397.788025 
	C322.778320,397.254395 318.949463,389.481628 316.145203,382.535828 
	C313.472931,375.916992 311.066986,368.967834 310.092651,361.948914 
	C309.115326,354.908203 309.978394,347.599823 310.185425,340.413116 
	C310.265259,337.641968 310.759735,334.882721 311.162842,331.705170 
M362.838470,320.518250 
	C356.058289,317.347870 349.188690,318.989655 342.463623,320.503784 
	C339.582458,321.152466 336.788818,322.804718 334.334961,324.538208 
	C332.444946,325.873352 330.991119,327.936768 329.619873,329.872284 
	C326.753662,333.917969 324.070068,338.093018 320.754272,343.047485 
	C323.852661,343.047485 325.890411,343.684540 327.009125,342.940247 
	C332.673157,339.171692 339.887634,342.216003 345.942230,336.884308 
	C351.110901,332.332764 359.780853,331.757172 367.439117,329.246796 
	C365.870270,326.498108 364.397064,323.917023 362.838470,320.518250 
z"/>
<path fill="#F6F6F6" opacity="1.000000" stroke="none" 
	d="
M1016.303589,354.148041 
	C1012.244507,354.477203 1008.636536,354.785278 1004.844299,355.109100 
	C1004.715149,364.210999 1005.336243,372.767822 1010.801575,380.157898 
	C1011.799011,381.506683 1013.028748,383.297424 1014.439697,383.619110 
	C1020.171570,384.925873 1026.037354,386.671478 1031.814087,386.538330 
	C1043.242554,386.274872 1054.647949,384.909851 1066.053345,383.891968 
	C1067.435181,383.768707 1068.757446,382.977753 1070.986206,382.182709 
	C1071.769043,383.271179 1073.318237,384.806824 1074.099487,386.665314 
	C1075.118408,389.088745 1073.919312,390.360413 1071.251953,391.009125 
	C1062.999146,393.016357 1054.930908,396.419739 1046.587158,397.261475 
	C1034.936768,398.436798 1023.068848,398.305115 1011.370850,397.547394 
	C1008.533691,397.363586 1005.801086,392.709473 1003.355774,389.826538 
	C992.644958,377.199280 991.086243,361.761292 991.594299,346.299103 
	C991.849792,338.522919 994.898621,330.762146 997.297363,323.188568 
	C997.867798,321.387573 1001.898499,320.744080 1002.592773,318.908295 
	C1004.199524,314.659729 1007.236816,312.494720 1011.041687,311.050354 
	C1027.114502,304.948792 1043.104492,302.457886 1058.541992,312.877960 
	C1063.087646,315.946136 1064.502075,328.583252 1063.211060,334.049164 
	C1061.074585,343.096069 1052.700439,342.195312 1047.520264,346.208435 
	C1040.624634,351.550598 1032.630371,349.892731 1025.318604,352.011658 
	C1022.496643,352.829498 1019.611206,353.428345 1016.303589,354.148041 
M1043.906616,331.562347 
	C1045.232056,330.783722 1046.557495,330.005127 1047.947632,329.188507 
	C1048.132080,321.661865 1047.590698,321.795013 1040.670532,318.599579 
	C1037.443481,317.109467 1035.555054,319.141937 1033.058716,319.217072 
	C1027.810303,319.375153 1022.405884,320.045868 1018.315918,324.118500 
	C1016.675964,325.751556 1015.202148,328.566071 1013.385864,328.803680 
	C1009.138855,329.359283 1008.685608,332.854065 1007.225220,335.361298 
	C1006.019043,337.432068 1005.924316,340.150299 1005.075134,343.666565 
	C1011.887939,342.261017 1019.117554,342.307556 1024.586548,339.227631 
	C1030.583862,335.850067 1036.551514,333.353088 1043.906616,331.562347 
z"/>
<path fill="#F7F7F7" opacity="1.000000" stroke="none" 
	d="
M258.137146,365.059418 
	C257.080963,373.770508 255.129623,382.321655 249.859512,389.444489 
	C244.592392,396.563263 237.497818,400.929291 228.539963,403.162354 
	C218.514877,405.661469 209.988861,401.628540 202.165680,397.629425 
	C196.246750,394.603760 190.801819,388.275299 187.995392,382.117981 
	C184.205063,373.801971 182.656235,364.350372 184.673508,354.802338 
	C186.350266,346.865906 187.244995,338.759796 189.039551,330.854462 
	C189.968079,326.764130 190.459946,322.362579 194.854584,319.522247 
	C197.348953,317.910065 198.759186,314.515472 200.457993,311.798737 
	C204.271133,305.700714 210.518158,305.569489 216.558380,305.267731 
	C225.809464,304.805634 234.766083,306.691589 241.711273,312.913361 
	C247.983978,318.532715 253.394531,325.266968 255.848541,333.659576 
	C257.221283,338.354248 258.074921,343.200714 259.064453,348.747986 
	C258.714935,352.363831 258.463379,355.210449 258.157288,358.492065 
	C258.114197,360.971191 258.125671,363.015320 258.137146,365.059418 
M245.801086,351.723419 
	C249.398666,350.254517 247.920013,347.146851 247.727875,344.720581 
	C247.671280,344.005829 245.420456,343.464844 244.137085,341.989227 
	C244.255463,333.900024 239.475693,327.795441 235.664261,321.322418 
	C235.165237,320.474945 234.004807,319.939209 233.052383,319.450897 
	C230.138550,317.956879 226.888321,316.945618 224.301208,315.028351 
	C220.414612,312.147980 217.308167,312.106079 214.343719,315.664093 
	C213.086075,317.173553 211.358246,318.355103 210.350586,319.996613 
	C207.723129,324.276794 204.727402,328.501221 203.087463,333.172302 
	C201.219604,338.492584 200.436829,344.238647 199.585556,349.860657 
	C198.292526,358.400085 198.468170,366.982391 201.153961,375.243317 
	C202.716309,380.048767 205.888062,383.440704 210.611420,386.208344 
	C215.963852,389.344635 220.892838,392.268555 226.667145,388.880096 
	C230.057709,386.890411 234.103241,386.643616 236.723450,382.069366 
	C242.151627,372.592987 244.901505,362.814392 245.801086,351.723419 
z"/>
<path fill="#F4F4F4" opacity="1.000000" stroke="none" 
	d="
M917.129211,321.748749 
	C917.129211,318.642487 917.129211,315.536194 917.129211,312.092957 
	C924.014954,312.092957 930.618530,312.092957 938.131592,312.092957 
	C938.131592,306.200104 938.131592,300.617798 938.513916,294.437073 
	C939.416016,290.093323 939.935730,286.347992 940.492249,282.337219 
	C941.579041,282.221863 942.808655,282.091339 944.038269,281.960785 
	C948.451172,281.352142 949.932373,283.348938 949.799561,287.667450 
	C949.559326,295.478760 949.731506,303.302765 949.731506,312.062073 
	C960.593567,312.062073 970.984436,312.062073 981.568787,312.062073 
	C981.775024,314.581085 981.847839,316.192871 982.050720,317.788086 
	C982.409241,320.607361 981.103027,321.585480 978.392273,321.795715 
	C969.170410,322.510956 959.963074,323.412750 950.236206,324.289673 
	C950.236206,329.264587 950.033203,334.351410 950.279602,339.416382 
	C950.756287,349.216431 951.356323,359.015167 952.180725,368.791199 
	C952.473877,372.267639 953.570679,375.675873 954.293945,379.116638 
	C955.317322,383.984619 959.586792,385.615570 963.330994,386.631165 
	C967.606995,387.791016 972.313660,387.461670 976.838074,387.563324 
	C978.982910,387.611511 981.134827,387.099976 983.290894,386.943115 
	C987.244385,386.655487 991.598206,390.250763 991.470520,394.151550 
	C991.428894,395.426453 989.822388,397.575562 988.697449,397.741913 
	C980.370544,398.973450 971.987244,399.830444 963.616089,400.754944 
	C956.708130,401.517853 950.567139,399.118286 945.606628,394.753662 
	C943.084900,392.534882 941.696533,388.728668 940.497681,385.388184 
	C939.242126,381.889771 938.312073,378.114258 938.134827,374.416931 
	C937.371704,358.496429 936.937683,342.560150 936.381836,326.629700 
	C936.359070,325.976013 936.317078,325.322998 936.263184,324.257996 
	C934.794861,324.180420 933.366272,324.104950 931.025757,324.012024 
	C925.781616,323.268982 920.880066,325.835358 917.129211,321.748749 
z"/>
<path fill="#F7F7F7" opacity="1.000000" stroke="none" 
	d="
M876.032288,304.808533 
	C886.901917,307.097107 897.771545,309.385712 908.879395,311.724457 
	C908.879395,314.632416 908.879395,317.015320 908.879395,319.452667 
	C902.312683,321.270569 897.494995,317.271210 892.268127,315.049164 
	C883.647217,311.384277 874.663879,312.537964 865.904175,313.489075 
	C863.718445,313.726379 860.942261,318.035156 860.300354,320.891296 
	C859.162781,325.952850 860.187805,330.926849 862.450806,336.074341 
	C864.988770,341.847382 870.368225,340.924622 874.254028,343.223419 
	C877.179993,344.954315 881.011902,345.124207 884.401306,346.122192 
	C885.226929,346.365295 885.927673,347.095703 886.633667,347.666565 
	C887.680298,348.512787 888.585205,350.019409 889.715698,350.197876 
	C896.974487,351.343719 902.389343,355.205627 907.283020,360.503235 
	C909.587524,362.998108 913.000122,364.580078 912.998596,368.510040 
	C912.996155,374.854706 914.272095,381.452362 909.512939,386.962830 
	C902.547119,395.028198 894.632568,400.816315 883.280273,401.264557 
	C872.300781,401.698029 861.814697,399.998077 851.867615,395.735748 
	C848.787659,394.416046 846.284363,391.166168 844.198425,388.303528 
	C842.641541,386.166992 846.201050,383.264099 850.109863,384.048889 
	C855.170654,385.064972 860.029663,387.254517 865.111450,387.959961 
	C873.823425,389.169342 882.702881,391.422699 891.059998,385.918213 
	C898.693787,380.890106 899.978821,378.999451 898.147827,371.456207 
	C897.710144,369.652771 896.216614,367.406403 894.618164,366.699951 
	C885.700256,362.758698 876.766968,358.715637 867.512573,355.714020 
	C859.641418,353.161072 852.955688,349.088745 849.206238,342.048370 
	C846.008911,336.044586 844.925110,328.984375 846.841370,321.987915 
	C847.391052,319.980804 847.801147,317.858337 848.773682,316.057983 
	C852.282654,309.561768 857.691772,305.697418 866.025330,304.994812 
	C869.929199,304.929169 872.980774,304.868866 876.032288,304.808533 
z"/>
<path fill="#F6F6F6" opacity="1.000000" stroke="none" 
	d="
M475.058319,323.880646 
	C474.810394,320.256805 474.562469,316.632965 474.268524,312.336243 
	C480.349548,312.336243 486.560028,312.336243 493.131927,312.336243 
	C494.020782,301.126343 494.858643,290.559479 495.705780,279.875763 
	C498.719055,280.939789 500.958740,281.730652 504.214569,282.880310 
	C504.214569,289.222321 504.174438,296.317719 504.225250,303.412506 
	C504.282593,311.416321 504.674316,311.833679 512.378845,311.885864 
	C520.701416,311.942200 529.024719,311.898590 536.799072,311.898590 
	C537.572632,312.714508 537.921143,312.910431 537.986694,313.176147 
	C540.023315,321.436432 540.007690,321.282349 531.056885,321.937836 
	C522.654175,322.553223 514.278992,323.544098 506.225311,324.336914 
	C506.225311,337.856659 506.099152,351.293457 506.310272,364.724976 
	C506.366058,368.274445 506.319885,372.781708 508.328522,375.136353 
	C512.007080,379.448669 513.660278,385.734467 520.600342,387.389709 
	C527.354980,389.000702 533.676208,387.034821 540.189941,386.884094 
	C543.659851,386.803833 548.555420,391.588104 547.759094,394.991058 
	C547.487000,396.153809 545.691345,397.605316 544.428772,397.786041 
	C536.416748,398.932709 528.377197,400.180481 520.309204,400.530426 
	C515.702332,400.730225 510.828064,399.863708 506.462891,398.353699 
	C504.328156,397.615265 502.850647,394.448212 501.472290,392.143188 
	C495.363373,381.927521 492.396423,370.968201 492.891144,358.911530 
	C493.361298,347.452972 492.992340,335.959991 492.992340,324.032043 
	C491.105286,324.032043 489.509521,324.032043 487.014954,324.015259 
	C482.430206,323.959198 478.744263,323.919922 475.058319,323.880646 
z"/>
<path fill="#F5F5F5" opacity="1.000000" stroke="none" 
	d="
M447.952362,318.835388 
	C435.440796,319.028931 427.170868,325.702698 420.967773,335.995605 
	C413.839050,347.824524 412.330963,360.875885 414.410767,373.852234 
	C416.411743,386.336700 424.290771,392.780853 437.970734,392.014984 
	C446.594269,391.532196 455.101654,389.189514 463.714996,388.111481 
	C465.266693,387.917297 467.700775,389.418579 468.615356,390.848389 
	C469.751465,392.624420 469.730927,395.140350 470.239960,397.474365 
	C457.065826,402.013947 443.812317,403.944946 430.302551,402.527466 
	C424.371338,401.905121 418.591797,399.726624 412.789398,398.091492 
	C411.779938,397.807037 410.623322,396.890228 410.172760,395.957306 
	C406.100250,387.524628 400.095215,379.762360 401.020538,369.556854 
	C401.274963,366.750519 401.145447,363.887878 400.956696,361.066833 
	C400.346680,351.950256 401.138428,342.808777 404.765900,334.577148 
	C407.897980,327.469635 409.323334,318.746613 416.982605,314.520874 
	C421.928223,311.792297 427.329437,309.549103 432.800964,308.209595 
	C438.337036,306.854279 444.246582,306.195770 449.927704,306.488922 
	C455.905914,306.797363 461.807281,308.594482 467.615234,309.716614 
	C467.345947,313.482300 467.160675,316.072906 466.957672,318.911652 
	C465.188416,318.911652 463.563782,318.911652 461.509705,318.433777 
	C458.714294,315.432648 450.134155,315.026764 448.151642,317.395142 
	C447.887970,317.710114 448.009308,318.347382 447.952362,318.835388 
z"/>
<path fill="#F8F8F8" opacity="1.000000" stroke="none" 
	d="
M125.894440,393.999298 
	C124.582138,401.072083 122.219765,401.355011 115.359116,399.627106 
	C108.640617,397.934967 108.688721,394.043701 108.957062,389.081421 
	C109.973816,370.279755 110.978607,351.477478 111.987869,332.675415 
	C117.902771,324.760651 112.993202,314.465912 117.993050,306.143616 
	C119.797203,306.893585 121.723488,307.694336 124.061989,308.666443 
	C124.061989,312.081848 124.061989,315.703735 124.061989,319.325623 
	C124.494125,319.697968 124.926262,320.070312 125.358398,320.442627 
	C127.653130,318.624115 129.943542,316.800079 132.244736,314.989746 
	C133.164917,314.265778 134.007172,313.238434 135.058273,312.918152 
	C142.273621,310.719482 149.569687,309.279266 157.226944,309.994690 
	C168.559616,311.053497 177.098373,319.919769 174.464233,330.576172 
	C169.721817,329.887634 164.958618,330.899597 161.827454,324.733612 
	C160.497604,322.114868 154.837952,320.485352 151.186615,320.554230 
	C146.376968,320.644989 141.395111,322.360718 136.890060,324.309052 
	C133.522324,325.765594 130.791794,328.695526 127.317711,331.247437 
	C125.911003,332.624176 124.156158,333.712494 124.141922,334.823090 
	C123.995987,346.206116 124.132416,357.592773 124.115875,369.440674 
	C124.097054,374.590179 124.152382,379.277405 124.138245,384.409973 
	C124.677338,387.903290 125.285889,390.951294 125.894440,393.999298 
z"/>
<path fill="#222222" opacity="1.000000" stroke="none" 
	d="
M308.951965,212.679901 
	C289.151520,213.068588 269.352051,213.007217 249.552567,213.004730 
	C167.686569,212.994385 85.820557,213.001846 3.487392,213.017105 
	C3.789750,212.028976 4.365389,210.607010 5.381227,210.137543 
	C6.480932,209.629318 7.991244,210.003174 9.322471,210.003174 
	C107.173843,210.002930 205.025223,209.989975 302.876465,210.100769 
	C304.896179,210.103058 308.162201,208.175110 308.951965,212.679901 
z"/>
<path fill="#222222" opacity="1.000000" stroke="none" 
	d="
M1149.977539,212.611572 
	C1048.311279,213.023941 946.642700,213.016357 844.510315,213.053574 
	C844.791199,212.074692 845.338074,210.706192 846.340210,210.131134 
	C847.220093,209.626251 848.610352,210.003372 849.775146,210.003357 
	C947.961792,210.002213 1046.148438,209.990082 1144.334961,210.093506 
	C1146.215698,210.095490 1148.095093,211.461868 1149.977539,212.611572 
z"/>
<path fill="#848484" opacity="1.000000" stroke="none" 
	d="
M2.998425,196.411438 
	C104.679939,195.985596 206.331299,195.996613 308.443512,195.965714 
	C308.437012,196.604218 308.065826,197.752884 307.483246,197.872574 
	C306.043274,198.168427 304.506470,198.005066 303.008575,198.005112 
	C204.956741,198.008179 106.904915,198.015884 8.853116,197.961823 
	C6.891297,197.960739 4.929878,197.235626 2.998425,196.411438 
z"/>
<path fill="#848484" opacity="1.000000" stroke="none" 
	d="
M844.065430,196.363113 
	C851.422302,195.962219 858.752991,196.028122 866.083740,196.028366 
	C960.402100,196.031494 1054.720459,196.025253 1149.505127,195.998016 
	C1149.486816,196.640320 1149.094116,197.761169 1148.499268,197.881226 
	C1147.057373,198.172272 1145.521606,198.008636 1144.023560,198.008667 
	C1045.969482,198.010437 947.915344,198.017227 849.861267,197.959778 
	C847.920471,197.958649 845.979980,197.203018 844.065430,196.363113 
z"/>
<path fill="#C0C0C0" opacity="1.000000" stroke="none" 
	d="
M514.350586,67.780838 
	C513.853943,55.308594 513.781311,42.829075 513.684387,30.349741 
	C513.682129,30.063398 513.405029,29.779186 512.990112,28.984449 
	C468.852020,28.984449 424.457153,28.984449 379.603943,29.017206 
	C379.727020,28.026524 380.095886,26.717918 380.960022,26.073643 
	C381.602966,25.594284 382.887543,25.973707 383.886322,25.973700 
	C425.835907,25.973358 467.785522,25.969940 509.735107,25.985092 
	C511.525726,25.985739 513.316284,26.158615 515.798157,26.287025 
	C515.798157,37.732857 515.861816,48.826569 515.751404,59.918549 
	C515.725281,62.539886 515.113831,65.155396 514.350586,67.780838 
z"/>
<path fill="#F3F3F3" opacity="1.000000" stroke="none" 
	d="
M274.957214,290.905823 
	C274.391449,288.039001 273.432129,285.597443 273.370239,283.133362 
	C273.270233,279.150879 274.413025,275.492310 279.224060,274.987366 
	C285.665192,274.311310 289.273621,276.845703 291.075439,281.591003 
	C292.663391,285.773041 293.913269,289.550751 291.925781,293.971405 
	C288.911896,300.674835 277.440857,299.056641 274.957214,290.905823 
z"/>
<path fill="#646464" opacity="1.000000" stroke="none" 
	d="
M124.190025,368.978394 
	C124.132416,357.592773 123.995987,346.206116 124.141922,334.823090 
	C124.156158,333.712494 125.911003,332.624176 127.290833,331.625397 
	C127.809151,343.847565 127.894539,355.969849 127.545990,368.549133 
	C126.138046,368.996887 125.164032,368.987640 124.190025,368.978394 
z"/>
<path fill="#727272" opacity="1.000000" stroke="none" 
	d="
M124.115875,369.440674 
	C125.164032,368.987640 126.138046,368.996887 127.476700,369.014648 
	C127.893959,373.715393 127.946571,378.407623 127.562363,383.550201 
	C126.152939,383.988586 125.180321,383.976624 124.207710,383.964630 
	C124.152382,379.277405 124.097054,374.590179 124.115875,369.440674 
z"/>
<path fill="#C0C0C0" opacity="1.000000" stroke="none" 
	d="
M668.010986,358.410767 
	C673.256165,357.474548 671.280334,362.060638 672.506958,364.293518 
	C674.993896,364.912689 677.401672,365.512115 679.927856,366.478210 
	C678.744812,366.894135 677.441833,367.009430 676.141968,366.981720 
	C668.969849,366.829010 668.091980,365.944611 668.010986,358.410767 
z"/>
<path fill="#848484" opacity="1.000000" stroke="none" 
	d="
M943.820862,281.644135 
	C942.808655,282.091339 941.579041,282.221863 940.492249,282.337219 
	C939.935730,286.347992 939.416016,290.093323 938.530273,293.976318 
	C938.210693,289.891998 938.119690,285.661102 938.395081,281.454163 
	C938.468933,280.325470 939.659363,279.269836 940.337280,278.180664 
	C941.426025,279.229614 942.514709,280.278564 943.820862,281.644135 
z"/>
<path fill="#222222" opacity="1.000000" stroke="none" 
	d="
M917.026489,322.186218 
	C920.880066,325.835358 925.781616,323.268982 930.570068,324.072632 
	C930.168274,325.080536 929.409424,326.665009 928.432678,326.813263 
	C925.850830,327.205109 923.165161,326.840698 920.538208,327.025146 
	C917.108276,327.265961 916.813782,325.166351 917.026489,322.186218 
z"/>
<path fill="#646464" opacity="1.000000" stroke="none" 
	d="
M804.936584,304.530548 
	C800.323914,304.960083 795.590942,305.009735 790.393799,304.972290 
	C790.040710,304.400970 789.998413,303.781036 790.287476,303.454071 
	C792.539673,300.906128 802.380188,301.408142 804.936584,304.530548 
z"/>
<path fill="#C0C0C0" opacity="1.000000" stroke="none" 
	d="
M828.402100,394.923218 
	C828.213196,391.211823 828.350342,387.310669 828.804077,383.189636 
	C831.974548,386.173523 831.805908,391.227356 828.402100,394.923218 
z"/>
<path fill="#4C4C4C" opacity="1.000000" stroke="none" 
	d="
M54.082970,269.378937 
	C49.530533,269.802887 44.975788,269.814911 40.206593,269.451843 
	C43.319981,266.089783 51.356266,266.027161 54.082970,269.378937 
z"/>
<path fill="#848484" opacity="1.000000" stroke="none" 
	d="
M19.617161,401.172241 
	C19.153625,398.064972 19.121174,394.969940 19.525705,391.425415 
	C20.936459,390.990997 21.910229,391.006104 22.883999,391.021179 
	C22.942863,393.583588 23.277643,396.185455 22.919538,398.688202 
	C22.783670,399.637787 21.052359,400.359100 19.617161,401.172241 
z"/>
<path fill="#848484" opacity="1.000000" stroke="none" 
	d="
M124.138245,384.409973 
	C125.180321,383.976624 126.152939,383.988586 127.490067,384.012878 
	C127.493782,387.356262 127.132980,390.687256 126.333305,394.008789 
	C125.285889,390.951294 124.677338,387.903290 124.138245,384.409973 
z"/>
<path fill="#C0C0C0" opacity="1.000000" stroke="none" 
	d="
M448.413452,318.915466 
	C448.009308,318.347382 447.887970,317.710114 448.151642,317.395142 
	C450.134155,315.026764 458.714294,315.432648 461.071625,318.367249 
	C457.000214,318.850891 452.937408,318.923218 448.413452,318.915466 
z"/>
<path fill="#222222" opacity="1.000000" stroke="none" 
	d="
M19.238113,376.941956 
	C19.233068,373.747711 19.228025,370.553436 19.609760,367.179260 
	C25.566238,368.518250 21.981298,373.097565 22.644371,376.528778 
	C21.240906,376.937469 20.239510,376.939728 19.238113,376.941956 
z"/>
<path fill="#222222" opacity="1.000000" stroke="none" 
	d="
M475.056000,324.301880 
	C478.744263,323.919922 482.430206,323.959198 486.571747,324.078094 
	C486.659760,325.008118 486.524475,326.285187 485.883789,326.634003 
	C483.319183,328.030426 476.432098,326.676300 475.056000,324.301880 
z"/>
<path fill="#727272" opacity="1.000000" stroke="none" 
	d="
M258.211853,358.057068 
	C258.463379,355.210449 258.714935,352.363831 259.196960,349.148560 
	C263.881439,350.445312 261.406677,354.237061 261.566101,357.551910 
	C260.172882,358.025726 259.192352,358.041412 258.211853,358.057068 
z"/>
<path fill="#222222" opacity="1.000000" stroke="none" 
	d="
M876.013123,304.405823 
	C872.980774,304.868866 869.929199,304.929169 866.425415,304.917908 
	C867.503967,301.133698 873.059692,300.666229 876.013123,304.405823 
z"/>
<path fill="#4C4C4C" opacity="1.000000" stroke="none" 
	d="
M19.144258,377.372437 
	C20.239510,376.939728 21.240906,376.937469 22.615837,376.973419 
	C22.996098,379.070312 23.002827,381.129028 22.575850,383.595703 
	C21.159924,383.983917 20.177706,383.964172 19.195488,383.944397 
	C19.147127,381.897247 19.098766,379.850067 19.144258,377.372437 
z"/>
<path fill="#4C4C4C" opacity="1.000000" stroke="none" 
	d="
M258.157288,358.492065 
	C259.192352,358.041412 260.172882,358.025726 261.519043,357.976501 
	C261.365784,360.471161 264.154419,364.396759 258.533447,364.998047 
	C258.125671,363.015320 258.114197,360.971191 258.157288,358.492065 
z"/>
<path fill="#727272" opacity="1.000000" stroke="none" 
	d="
M19.114429,384.379333 
	C20.177706,383.964172 21.159924,383.983917 22.507153,384.032654 
	C22.919462,386.092285 22.966763,388.123016 22.949032,390.587463 
	C21.910229,391.006104 20.936459,390.990997 19.599106,390.969910 
	C19.168140,388.914001 19.100758,386.864105 19.114429,384.379333 
z"/>
<path fill="#030303" opacity="1.000000" stroke="none" 
	d="
M43.989990,348.123718 
	C35.794552,346.747131 27.599112,345.370544 19.690435,344.042114 
	C19.203129,342.981934 18.841778,342.551788 18.825480,342.108917 
	C18.209091,325.360870 17.640133,308.611084 17.022049,291.863098 
	C16.900906,288.580566 17.620646,286.725861 21.464544,285.662384 
	C24.926458,284.704651 27.717508,281.499023 30.991119,279.608063 
	C32.595249,278.681427 34.594444,278.299561 36.467087,278.015228 
	C38.426445,277.717743 40.448334,277.783447 42.443161,277.777222 
	C48.538815,277.758209 48.412281,278.028717 57.277729,282.442078 
	C64.314507,285.945099 68.295403,291.617859 72.502701,298.052368 
	C78.212830,306.785248 77.246445,315.745667 76.659065,324.896545 
	C76.504227,327.308868 74.149185,329.591217 72.764549,331.909393 
	C71.869110,333.408478 70.202698,334.816589 70.098053,336.348541 
	C69.797997,340.740967 66.176376,341.771118 63.401852,343.327484 
	C60.855663,344.755737 57.745796,345.179138 54.050232,345.974976 
	C50.140789,346.644348 47.065392,347.384033 43.989990,348.123718 
z"/>
<path fill="#646464" opacity="1.000000" stroke="none" 
	d="
M44.142509,348.490692 
	C47.065392,347.384033 50.140789,346.644348 53.655510,345.995728 
	C53.169765,350.592987 49.808105,351.543488 44.142509,348.490692 
z"/>
<path fill="#040404" opacity="1.000000" stroke="none" 
	d="
M813.180664,365.005432 
	C813.117126,366.829681 813.006836,368.653717 812.997925,370.478241 
	C812.957031,378.808472 808.595398,383.555786 800.120422,384.884583 
	C797.496094,385.296051 794.817261,386.108124 792.456787,387.312042 
	C785.656311,390.780518 780.990784,385.969238 775.857422,383.222656 
	C774.858215,382.688110 774.061462,380.780884 774.076416,379.517578 
	C774.140930,374.087555 772.535095,368.690521 777.732361,363.785370 
	C780.955200,360.743744 782.743530,355.962372 786.934021,353.443298 
	C788.216248,352.672516 789.560547,351.980652 790.748474,351.083252 
	C792.338623,349.882050 793.796997,348.507416 795.327759,347.226105 
	C795.789001,346.839996 796.261719,346.300232 796.799011,346.198120 
	C801.977783,345.214142 807.171448,344.308655 813.022522,343.262360 
	C813.022522,347.515411 813.022522,350.797913 813.027771,354.986969 
	C813.082275,358.930817 813.131470,361.968140 813.180664,365.005432 
z"/>
<path fill="#F3F3F3" opacity="1.000000" stroke="none" 
	d="
M813.588989,365.001526 
	C813.131470,361.968140 813.082275,358.930817 813.108093,355.443970 
	C814.453796,355.962097 816.899841,357.119141 816.779968,357.862915 
	C816.381836,360.334900 819.385864,364.484192 813.588989,365.001526 
z"/>
<path fill="#0A0A0A" opacity="1.000000" stroke="none" 
	d="
M362.881165,320.927094 
	C364.397064,323.917023 365.870270,326.498108 367.439117,329.246796 
	C359.780853,331.757172 351.110901,332.332764 345.942230,336.884308 
	C339.887634,342.216003 332.673157,339.171692 327.009125,342.940247 
	C325.890411,343.684540 323.852661,343.047485 320.754272,343.047485 
	C324.070068,338.093018 326.753662,333.917969 329.619873,329.872284 
	C330.991119,327.936768 332.444946,325.873352 334.334961,324.538208 
	C336.788818,322.804718 339.582458,321.152466 342.463623,320.503784 
	C349.188690,318.989655 356.058289,317.347870 362.881165,320.927094 
z"/>
<path fill="#0A0A0A" opacity="1.000000" stroke="none" 
	d="
M1043.509033,331.701508 
	C1036.551514,333.353088 1030.583862,335.850067 1024.586548,339.227631 
	C1019.117554,342.307556 1011.887939,342.261017 1005.075134,343.666565 
	C1005.924316,340.150299 1006.019043,337.432068 1007.225220,335.361298 
	C1008.685608,332.854065 1009.138855,329.359283 1013.385864,328.803680 
	C1015.202148,328.566071 1016.675964,325.751556 1018.315918,324.118500 
	C1022.405884,320.045868 1027.810303,319.375153 1033.058716,319.217072 
	C1035.555054,319.141937 1037.443481,317.109467 1040.670532,318.599579 
	C1047.590698,321.795013 1048.132080,321.661865 1047.947632,329.188507 
	C1046.557495,330.005127 1045.232056,330.783722 1043.509033,331.701508 
z"/>
<path fill="#040404" opacity="1.000000" stroke="none" 
	d="
M245.124039,352.100006 
	C244.901505,362.814392 242.151627,372.592987 236.723450,382.069366 
	C234.103241,386.643616 230.057709,386.890411 226.667145,388.880096 
	C220.892838,392.268555 215.963852,389.344635 210.611420,386.208344 
	C205.888062,383.440704 202.716309,380.048767 201.153961,375.243317 
	C198.468170,366.982391 198.292526,358.400085 199.585556,349.860657 
	C200.436829,344.238647 201.219604,338.492584 203.087463,333.172302 
	C204.727402,328.501221 207.723129,324.276794 210.350586,319.996613 
	C211.358246,318.355103 213.086075,317.173553 214.343719,315.664093 
	C217.308167,312.106079 220.414612,312.147980 224.301208,315.028351 
	C226.888321,316.945618 230.138550,317.956879 233.052383,319.450897 
	C234.004807,319.939209 235.165237,320.474945 235.664261,321.322418 
	C239.475693,327.795441 244.255463,333.900024 244.061005,342.852295 
	C244.364624,346.510223 244.744324,349.305115 245.124039,352.100006 
z"/>
<path fill="#727272" opacity="1.000000" stroke="none" 
	d="
M245.462555,351.911713 
	C244.744324,349.305115 244.364624,346.510223 244.080048,343.279785 
	C245.420456,343.464844 247.671280,344.005829 247.727875,344.720581 
	C247.920013,347.146851 249.398666,350.254517 245.462555,351.911713 
z"/>
</svg>